<?xml version="1.0" encoding="UTF-8"?>
<svg id="Camada_1" data-name="Camada 1" xmlns="http://www.w3.org/2000/svg" viewBox="0 0 500 500">
  <defs>
    <style>
      .cls-1 {
      fill: #1a5770;
      }

      .cls-2 {
      fill: #7f7044;
      }

      .cls-3 {
      fill: #132239;
      }

      .cls-4 {
      fill: #fbfbfb;
      }

      .cls-5 {
      fill: #fdfdfd;
      }
    </style>
  </defs>
  <path class="cls-1" d="M379.36,53.41c127.35,83.03,143.49,263.48,32.67,368.27-135.1,127.74-359.24,54.27-393.58-127.37C-20.24,89.67,204.68-60.48,379.36,53.41ZM47.88,364.48c79.92,139.63,273.42,159.99,378.75,37.03,120.97-141.23,34.02-362.14-149.81-382.67C89.01-2.13-46.59,199.43,47.88,364.48Z"/>
  <path class="cls-1" d="M241.66,27.82c149.79-5.36,262.13,134.95,223.01,280.4-45.88,170.56-265.84,222.14-382.1,88.07C-39.65,255.34,55.6,34.48,241.66,27.82ZM249.93,36.09c-175.2-.16-276.73,202.62-170.07,343.04,102.98,135.57,314.79,102.23,371.62-57.61,49.55-139.36-54.56-285.3-201.55-285.43Z"/>
  <path class="cls-2" d="M252.26,256.12h82.5c5.4,0,12.39,5.83,15.08,10.31,12.16,20.25-13.4,37.37-25.85,50.1-10.87,11.12-23.52,26.15-35.3,35.89-7.87,6.51-17.7,7.73-26.67,2.38-4.33-2.58-9.76-9.96-9.76-15.08v-83.6Z"/>
  <path class="cls-1" d="M247.85,256.12v85.81c0,5.37-7.92,12.99-12.86,14.73-13.78,4.83-23.29-2.75-31.27-13.09-14.92-17.22-35.98-32.84-50.24-50.19-6.91-8.41-7.5-20.31-1-29.16,2.49-3.39,9.17-8.1,13.42-8.1h81.95ZM205.36,283.71c-.06-.06-.01-1.05-.33-1.58-7.41-12.34-24.6-6.52-23.42,8.5.65,8.29,8.73,13.96,14.1,19.56,3.4,3.55,6.67,7.37,9.94,11.04.71.17,1.71-1.15,2.2-1.65,5.45-5.63,14.98-15.02,19.26-21.02,11.2-15.71-8.58-31.38-18.97-18.42-1.01,1.26-1.08,2.14-1.68,3.19-.34.59-.92.55-1.09.38Z"/>
  <path class="cls-2" d="M247.85,251.15c-15.38-.1-30.71.66-46.1.58-9.69-.05-19.55.04-29.23.02-21.24-.06-31.47-19.83-19.31-37.02,20.47-18.28,39.21-43.41,60.14-60.71,10.21-8.44,27.11-5.29,32.78,6.98.35.76,1.73,4.43,1.73,4.9v85.26ZM193.77,235.15h24.28c-.09-.81.26-1.96-.12-2.64-.19-.33-4.69-3.81-5.69-5.07-.79-1-1.21-2.03-1.91-3.06,13.61,5.97,25.32-9.58,16.54-21.51-4.33-5.9-13.33-14.27-18.75-19.88-.52-.54-1.68-2.01-2.42-1.88l-20.77,21.76c-8.71,12.31,1.61,26.7,16,21.8.43,3.07-9.41,8.18-7.17,10.48Z"/>
  <path class="cls-3" d="M260.54,75.12l.55,35.86-7.17.56v-23.73c-1.65-.29-.87.44-1.16,1.29-2.5,7.41-4.26,15.11-6.9,22.47l-5.13-.09-7.22-23.12.55,23.73h-7.73l-.55-36.42h9.93l7.12,22.95,1.15.78,7.18-24.28h9.38Z"/>
  <path class="cls-3" d="M407.87,164.51c1.54,6.05,8.46,12.61,7.69,18.99-.51,4.22-4.14,7.84-8.11,9-3.43,1-5.24.58-8.4-.94.85,7.15-8.01,9.22-12.41,13.24-8.79-10.02,4.55-9.57,6.61-13.79.87-1.78-.39-7.62-1.93-8.59-1.68-1.07-10.3,5.19-12.92,5.32l-3.09-7.21,32.55-16.01ZM406.18,174.48c-.91-.65-8.19,3.68-9.65,4.36,1.11,4.92,3.56,8.85,9.1,6.29,5.01-2.31,2.18-7.02.55-10.65Z"/>
  <path class="cls-3" d="M379.03,137.05c11.34-2.32,21.27,10.88,13.93,20.55-2.35,3.1-13.99,13.24-17.49,13.96-12.77,2.61-21.78-13.13-12.3-22.79,2.16-2.2,13.42-11.23,15.86-11.73ZM381.8,144.21c-1.46.28-3.85,2.23-5.08,3.21s-9.28,7.98-9.6,8.61c-2.51,4.81,1.67,10.3,6.87,7.97,3.36-3.71,15.1-9.84,14.57-15.16-.32-3.26-3.68-5.22-6.76-4.63Z"/>
  <path class="cls-3" d="M118.72,155.68c2.18-.6,4.39-.87,6.63-.29.98.25,7.9,4.5,9.02,5.32.52.38.94.52.93,1.31,0,.32-3.4,5.22-3.72,5.28-4.71,1-12.34-12.88-17.81-.37.15.71,9.97,7.71,11.56,8.62.35.48-4.01,6.08-5.24,6.08-1.77,0-24.07-19.92-27.91-21.89-.05-.79.33-1.39.68-2.05,1.35-2.59,8.64-11.43,11.12-12.6,7.52-3.56,15.99,2.31,14.74,10.59ZM101.07,157.33c3.06.56,6.36,7.26,9.41,4.74s3.95-7.24.24-9.7c-4.64-3.07-7.83,1.02-9.66,4.96Z"/>
  <path class="cls-3" d="M131.3,119.38c3.55-.32,6.86,1.27,9.5,3.46,2.02,1.68,8.31,8.63,9.6,10.82,3,5.07,2.53,9.79-.87,14.48-.9,1.24-9.99,9.49-10.78,9.69-.3.08-.58.12-.88,0l-22.4-26.82.73-1.85c4.84-3.39,8.71-9.21,15.1-9.78ZM129.61,126.57c-1.19.25-5,2.68-4.78,3.94,2.05,1.93,14.3,18.08,15.44,17.79,3.11-.79,5.56-5.84,4.51-9.02-.48-1.44-9.5-11.54-10.85-12.32s-2.83-.7-4.32-.39Z"/>
  <path class="cls-3" d="M182.15,99.37c-1.66-.32-4.6,2.37-5.69,2.16-1.42-.27-1.62-4.31-6.09-3.77s-5.23,4.16-4.06,7.86c.79,2.51,6.22,14.8,7.93,15.79,3.1,1.77,8.94-.52,8.99-4.06,0-.54-1.92-5.62-2.16-5.81-.45-.35-7.43,5.63-7.49-3.33l11.91-4.95c.74,3.77,4.93,9.08,5.42,12.56,1.32,9.49-18.09,20-25.76,5.86-3.16-5.83-7.9-15.06-6.31-21.63,2.43-10.09,21.94-13.18,23.32-.69Z"/>
  <path class="cls-3" d="M339.42,109.86c-.53.38-5.56-1.93-6.06-2.47-1.06-1.12.06-2.42.07-3.87.07-6.32-10.33-5.63-9.34.45.84,5.17,10.53,8.65,9.15,17.64-2.74,17.86-32.38,5.49-23.58-10.07.94.38,6.38,2.5,6.6,2.79.36.48-2.14,3.93,0,6.88,2.86,3.91,10.29,3.18,9.94-2.18-.23-3.48-8.59-8.86-9.33-14.43-.62-4.68,1.44-9.76,6.03-11.53,9.54-3.69,21.91,6.59,16.52,16.81Z"/>
  <path class="cls-3" d="M422.72,200.43c.61,2.54,6.05,20.04,5.35,20.94-.57.73-4.67,1.15-5.84,1.63-.29-2-3.14-13.44-4.21-13.75-1.2-.35-5.65,1.76-7.34,1.65-1.18,1.37,3.56,10.45,3.22,11.78-.22.87-5.34,2.37-5.97,1.93-.54-.38-3.01-9.97-3.41-11.49l-8.79,1.61,3.9,14.01-6.09,1.98-5.87-21.54,35.04-8.75Z"/>
  <path class="cls-3" d="M224.12,112.64c-2.03-.08-5.55,2.06-7.35,1.7-.84-.17-2.98-6.01-3.51-6.14-1.25-.31-10.29,1.65-10.59,2.59-.38,1.17-.4,7.08-.65,7.35l-7.15,1.13,2.84-37.43c1.8-.34,5.98-2.39,7.35-1.2l19.05,32ZM202.6,103.81c1.19-.29,6.99-1.06,7.17-1.94l-6.35-11.85c-.62,4.57-1.04,9.16-.82,13.79Z"/>
  <path class="cls-3" d="M295.28,80.66c.41.43-.3,5.68-1.42,6.01-1.76.52-12.92-3.27-14-2.16l-1.07,8.23c1.61.62,11.02,1.63,11.49,2.31.6.86-.86,4.15-.49,5.46l-12.69-1.66-1.66,9.38c.49.47,11.89,1.5,13.27,2.46,1.02.71.1,5.63-.55,6.14-.84.66-18.42-3.79-20.93-4.25l6.56-35.81c2.59.59,20.74,3.1,21.5,3.89Z"/>
  <path class="cls-3" d="M344.61,140.04c1.69,1.69,4.6,1.74,6.63.68,1.14-.6,1.72-2.44,3.24-2.06.85.21,4.85,3.09,4.85,4.06,0,.82-2.55,3.27-3.37,3.83-9.8,6.68-24.42-4.6-18.63-16.42,1.5-3.05,11.25-14.55,14.06-16.29,8.28-5.11,20.42,3.7,18.81,13.3-.23,1.36-2.32,6.17-3.93,5.88-.27-.05-4.09-3.27-4.26-3.51-1.32-1.91.88-2.55,1.14-4.49.36-2.66-1.33-4.84-3.84-5.5-2.95-.77-3.96.61-5.81,2.5-1.46,1.49-9.25,10.94-9.77,12.3-.78,2.03-.72,4.14.87,5.72Z"/>
  <path class="cls-3" d="M118.67,183.33c.58.86-2,6.43-2.71,6.88-.93.59-5.72-.92-7.17-.86-.18,2.94-2.97,6.17-3.65,8.83-.56,2.19,4.85,3.96,5.21,5.87.22,1.15-2.72,4.65-2.68,6.27-.52.39-2.77-1.49-3.31-1.92-6.73-5.49-14.84-13.45-21.25-19.58-.83-.79-2.94-2.59-3.04-3.62s2.01-6.29,3.05-6.38l35.55,4.52ZM102.72,188.25l-13.24-2.21,10.21,8.82c1.19.2.64-.24.87-.76.37-.83,2.42-5.56,2.16-5.85Z"/>
  <path class="cls-3" d="M84.51,207.56c-.52,1.08-.86,6.91-1.11,7.17-.42.44-4.53-1.06-6.54,1.46-1.54,1.94-1.53,4.52,0,6.47,1.63,2.08,13.8,4.58,16.77,4.76,9.15.55,8.21-9.94.22-11.37l1.72-6.82c16.33,1.87,13.65,27.38-3.06,25.92-3-.26-15.66-3.26-17.91-4.71-10.51-6.75-3.55-27.32,9.91-22.87Z"/>
  <g>
    <path class="cls-2" d="M328.41,369.24c.2,4.11-.56,8.34-1.81,12.26-2.85,8.93-11.04,19.67-19.89,23.15-2.18.86-3.86,2.01-3.7-1.44.66-14.67,11.52-29.27,25.4-33.96Z"/>
    <path class="cls-2" d="M107.12,264.95c8.72,12.84,10.54,30.14,2.21,43.59-1.37.99-5.05-5.88-5.51-6.89-4.56-9.91-4.28-24.28.81-33.97.37-.7,1.63-3.45,2.5-2.73Z"/>
    <path class="cls-2" d="M232.37,416.73c.82,1.21-3.9,5.42-4.98,6.27-10.21,8.01-24.26,9.38-36.37,5.28-.57-.62,2.97-3.88,3.57-4.42,9.83-8.8,25.45-12.35,37.78-7.13Z"/>
    <path class="cls-2" d="M378.92,293.65c1.41-.31,4.94,6.95,5.49,8.28,4.51,11.01,4.24,25.42-2.75,35.3-7.78-7.16-8.92-19.29-7.85-29.36.24-2.3,3.04-13.76,5.11-14.22Z"/>
    <path class="cls-2" d="M121.77,293.65c1.05-.22,1.68,1.67,2.02,2.38,4.87,10.14,4.94,23.14.72,33.48-1.33,3.24-4.07,10.39-7.19,5-4.34-7.49-4.54-20.59-2.18-28.73.59-2.03,4.91-11.76,6.64-12.13Z"/>
    <path class="cls-2" d="M349.93,347.72c3.8,14.41-.94,33.27-14.03,41.37-2.26-.5-2.15-11.97-1.98-14.08.74-9.36,6.97-20.74,14.36-26.47.55-.43.7-1.07,1.65-.82Z"/>
    <path class="cls-2" d="M394.62,264.95c.47.39,2.8,5.97,3.18,7.03,4.27,12.02,3.18,26.5-5.1,36.55-3.81-3.5-5.45-9.21-6.2-14.21-1.43-9.61.93-18.66,5.83-26.98.4-.67,1.4-3.13,2.29-2.39Z"/>
    <path class="cls-2" d="M267.16,413.38c1.67-13.91,18.05-26.43,31.46-27.34,3.08-.21,2.16.85,1.36,3.05-4.76,13.06-18.73,24.17-32.82,24.29Z"/>
    <path class="cls-2" d="M165.58,388.51c-1.8,1.27-6.04-3.39-7.11-4.66-7.55-8.99-11.12-24.94-7.18-36.13.52-.4,4.38,3.47,4.97,4.12,5.86,6.46,11.07,18.27,11.07,27.05,0,1.18-1.26,9.27-1.75,9.61Z"/>
    <path class="cls-2" d="M368.14,322.89c5.07,10.91,4.61,25.9-1.36,36.43-.85,1.5-4.18,6.56-6.01,6.03-7.05-11.44-3.6-31.22,5.19-41.07.6-.68,1.13-1.57,2.19-1.39Z"/>
    <path class="cls-2" d="M197.63,405.11c-5.72-.2-11.22-4.98-14.91-9.09-6.25-6.96-10.34-16.84-10.47-26.23,1.1-1.09,8.57,3.76,9.89,4.74,9.54,7.07,15.24,18.7,15.49,30.58Z"/>
    <path class="cls-2" d="M173.79,402.52c7.02-.34,15.1,1.27,21.04,5.12,5.14,3.33,1.84,5.06-2.56,6.73-10.17,3.85-25.3,2.88-34.31-3.51-3.1-2.2-2.91-2.25.68-4.18,4.06-2.18,10.55-3.93,15.16-4.15Z"/>
    <path class="cls-2" d="M268.27,416.71c14.02-5.4,32.35-.9,41.38,11.29-9.95,4.54-23.25,2.6-32.57-2.74-3.31-1.9-7.75-4.73-8.82-8.55Z"/>
    <path class="cls-2" d="M414.5,314.61c-2.52,14.56-15.73,28.71-30.9,29.8.36-15.65,16.62-27.48,30.9-29.8Z"/>
    <path class="cls-2" d="M399.6,350.48c1.11,1.06-5,8.58-6.05,9.67-7.65,7.95-20.23,14.27-31.47,11.84,4.55-15.13,22.93-21.94,37.52-21.51Z"/>
    <path class="cls-2" d="M324.46,402.48c4.78-.05,10.42,1.25,14.82,3.08.87.36,5.17,2.43,5.44,2.84.73,1.1-.54,1.56-1.22,2.13-3.42,2.89-13.69,5.68-18.19,6.09-7.55.69-16.93-.82-22.81-5.78,4.95-5.94,14.43-8.28,21.95-8.36Z"/>
    <path class="cls-2" d="M233.5,412.83c-15.07.64-29.74-13.05-33.66-27.03,15.19,1.01,30.75,11.36,33.66,27.03Z"/>
    <path class="cls-2" d="M132.52,322.89c1.02-.77,4.53,4.28,5.07,5.13,6.33,10.17,8.54,26.77,2.31,37.32-1.77.52-5.23-5.17-6.01-6.58-6.04-10.99-6.27-24.44-1.36-35.88Z"/>
    <path class="cls-2" d="M138.59,372.55h-8.55c-1.4,0-7.12-2.14-8.75-2.84-8.4-3.59-16.46-10.84-20.22-19.24h8c4.52,0,15.2,4.72,18.99,7.5,4.08,2.99,10.5,9.3,10.53,14.58Z"/>
    <path class="cls-2" d="M360.31,380.44c4.49-.46,9.73-.26,14.19.38.6.09,1.77.11,1.92.85.14.68-4.65,5.35-5.51,6.07-7.7,6.49-19.33,10.69-29.46,9.58-3.29-.36-6.98-.93-4.45-4.87,3.88-6.07,16.33-11.29,23.31-12Z"/>
    <path class="cls-2" d="M117.62,344.41c-15.11-1.15-28.69-15.03-30.9-29.8,15.05,2.2,29.19,14.28,30.9,29.8Z"/>
    <path class="cls-2" d="M165.05,395.7c-.21.29-5.51,1.52-6.39,1.62-11.28,1.17-28.29-5.72-33.87-15.93,10.71-2.32,20.95-1.56,30.52,3.96,1.92,1.11,11.48,7.91,9.74,10.35Z"/>
    <path class="cls-2" d="M242.32,421.11c-.29,1.25,1.45,3.48.87,4.41-.28.46-4.78,3.21-5.84,4.14-1.33,1.16-5.77,6.37-6.89,6.37-1.2,0-4.19-3.15-3.09-4.73.77-1.11,6.46-5.41,7.93-6.45,1.04-.73,6.3-4.36,7.01-3.74Z"/>
    <path class="cls-2" d="M249.35,414.6c10.25-2.27,6.42,17.3-2.34,9.83-3.52-3-1.69-8.94,2.34-9.83Z"/>
    <path class="cls-2" d="M259.17,421.11c1.09-.23,13.56,8.77,14.35,10.5.62,1.34-1.5,3.7-2.49,4.15-1.21.55-4.71-3.79-5.82-4.7-1.25-1.02-7.51-5.12-7.75-5.52-.12-.2,1.21-4.32,1.71-4.43Z"/>
  </g>
  <path class="cls-4" d="M193.77,235.15c-2.24-2.3,7.6-7.41,7.17-10.48-14.39,4.9-24.71-9.49-16-21.8l20.77-21.76c.74-.13,1.9,1.34,2.42,1.88,5.42,5.61,14.41,13.98,18.75,19.88,8.77,11.94-2.93,27.49-16.54,21.51.7,1.03,1.11,2.06,1.91,3.06,1,1.25,5.5,4.73,5.69,5.07.38.68.03,1.84.12,2.64h-24.28ZM199.29,231.84h13.24c-4-3.88-5.92-8.77-6.06-14.35,7.25,9.27,22.04,5.23,20.36-7.4-.83-6.26-12.49-15.61-17.07-20.45-.81-.86-2.86-4.32-4.05-4.11-5.13,6.14-13.27,12.33-18,18.46-6.98,9.05-.8,21.22,11.04,18.21,2.71-.69,4.47-3.13,6.6-4.71.02,5.5-2.17,10.51-6.06,14.35Z"/>
  <path d="M199.29,231.84c3.9-3.84,6.09-8.84,6.06-14.35-2.13,1.58-3.89,4.02-6.6,4.71-11.84,3-18.02-9.16-11.04-18.21,4.73-6.13,12.87-12.32,18-18.46,1.18-.21,3.24,3.26,4.05,4.11,4.58,4.84,16.24,14.19,17.07,20.45,1.68,12.63-13.11,16.67-20.36,7.4.15,5.58,2.06,10.46,6.06,14.35h-13.24Z"/>
  <g>
    <path class="cls-4" d="M307.26,286.46c5.89.63,10.74,5.31,11.79,11.1,1.69,9.35-7.02,18.04-16.34,16.13-1.02-.21-1.95-.66-2.96-.9,1.04,1.46,2.3,2.74,3.59,3.96.76.72,2.69,2.11,3.16,2.87.91,1.47-.19,3.07-1.83,3.11-6.81-.36-14.08.47-20.83,0-1.36-.09-2.41-.78-2.27-2.28.1-1.08,1.57-2.12,2.27-2.91,1.33-1.49,2.65-3.02,3.65-4.76-1.68.53-3.34,1.16-5.12,1.27-9.2.59-15.02-8.34-13.66-16.84.93-5.83,5.55-9.96,11.39-10.55-.73-3.2-.59-6.38.69-9.4,2.78-6.55,10.32-10,17.15-7.96,7.22,2.16,11.37,9.88,9.33,17.15ZM304.41,288.36c2.65-5.3,1.48-11.56-3.23-15.22-6.15-4.78-15.48-2.28-18.56,4.79-1.49,3.42-1.31,7.07.23,10.43-2.09.05-4.14.34-6.06,1.18-11.29,4.92-6.34,24.12,6.1,22.49,1.51-.2,3.38-.81,4.72-1.52s2.3-1.84,3.48-2.8c-.21,4.37-2.92,8.01-5.76,11.1-.58.63-1.32,1.16-1.75,1.9h21.25c-3.77-3.56-8.79-7.23-8.67-13,4.13,4.39,10.16,5.74,15.42,2.37,6.85-4.4,7.83-13.7,1.54-19.07-1.32-1.13-4.28-2.65-6.02-2.65h-2.7Z"/>
    <path d="M304.41,288.36h2.7c1.74,0,4.7,1.52,6.02,2.65,6.3,5.37,5.31,14.67-1.54,19.07-5.26,3.38-11.29,2.02-15.42-2.37-.12,5.77,4.9,9.45,8.67,13h-21.25c.42-.74,1.17-1.27,1.75-1.9,2.84-3.09,5.55-6.73,5.76-11.1-1.18.96-2.11,2.08-3.48,2.8s-3.21,1.32-4.72,1.52c-12.44,1.63-17.39-17.57-6.1-22.49,1.93-.84,3.97-1.12,6.06-1.18-1.54-3.36-1.72-7.01-.23-10.43,3.09-7.06,12.42-9.57,18.56-4.79,4.71,3.66,5.88,9.92,3.23,15.22Z"/>
  </g>
  <path class="cls-1" d="M345.8,212.51c-14.67-16.85-33.98-33.79-49.96-49.92-8.73-8.81-13.51-16.26-28.04-12.62-6.87,1.72-15.54,9.57-15.54,17.02v84.15c1.22.08,2.33.49,3.57.58,25.91,1.89,54.91-.91,81-.71,18.08-6.12,21.08-24.59,8.98-38.5ZM294.68,235.93c-.45.26-1.16.13-1.6-.19l-22.57-25.47,23.41-25.6,23.41,25.2-22.65,26.06Z"/>
</svg>