<?xml version="1.0" encoding="UTF-8"?>
<svg id="Camada_1" data-name="Camada 1" xmlns="http://www.w3.org/2000/svg" viewBox="0 0 500 500">
  <defs>
    <style>
      .cls-1 {
      fill: #1a5770;
      }

      .cls-2 {
      fill: #7f7044;
      }

      .cls-3 {
      fill: #fbfbfb;
      }

      .cls-4 {
      fill: #fdfdfd;
      }
    </style>
  </defs>
  <g>
    <path class="cls-1" d="M376.38,57.94c124.41,81.11,140.18,257.41,31.92,359.78-131.98,124.8-350.96,53.02-384.51-124.44C-14.01,93.36,205.72-53.32,376.38,57.94ZM52.54,361.84c78.08,136.41,267.12,156.3,370.02,36.18,118.18-137.97,33.24-353.8-146.36-373.85C92.72,3.68-39.76,200.59,52.54,361.84Z"/>
    <path class="cls-1" d="M241.86,32.94c146.34-5.24,256.09,131.84,217.87,273.93-44.82,166.63-259.71,217.02-373.3,86.04C-32.98,255.22,60.08,39.45,241.86,32.94ZM249.93,41.02c-171.16-.15-270.35,197.95-166.15,335.13,100.6,132.44,307.53,99.87,363.05-56.28,48.41-136.15-53.3-278.73-196.9-278.85Z"/>
    <path class="cls-2" d="M252.21,255.98h80.6c5.27,0,12.1,5.69,14.73,10.07,11.88,19.78-13.09,36.51-25.26,48.95-10.62,10.86-22.98,25.54-34.48,35.06-7.69,6.36-17.29,7.55-26.06,2.32-4.23-2.52-9.53-9.73-9.53-14.73v-81.67Z"/>
    <path class="cls-1" d="M252.21,251.12v-82.21c0-7.28,8.47-14.94,15.18-16.62,14.19-3.56,18.86,3.72,27.39,12.33,15.62,15.75,34.48,32.3,48.81,48.77,11.83,13.58,8.9,31.63-8.77,37.61-25.49-.19-53.82,2.55-79.13.7-1.21-.09-2.29-.48-3.48-.56Z"/>
    <path class="cls-1" d="M247.9,255.98v83.83c0,5.25-7.74,12.69-12.57,14.39-13.46,4.72-22.75-2.68-30.55-12.78-14.58-16.82-35.15-32.08-49.09-49.03-6.75-8.22-7.33-19.85-.97-28.49,2.44-3.31,8.96-7.91,13.12-7.91h80.06ZM206.39,282.93c-.06-.06-.01-1.03-.32-1.54-7.24-12.05-24.03-6.37-22.88,8.3.63,8.1,8.53,13.64,13.77,19.11,3.32,3.46,6.52,7.2,9.71,10.79.7.17,1.67-1.12,2.14-1.61,5.32-5.5,14.63-14.67,18.82-20.54,10.94-15.35-8.38-30.65-18.54-18-.99,1.23-1.06,2.09-1.64,3.12-.33.58-.9.54-1.07.37Z"/>
    <path class="cls-2" d="M247.9,251.12c-15.02-.1-30.01.64-45.04.56-9.46-.05-19.1.04-28.56.02-20.75-.06-30.74-19.37-18.87-36.17,20-17.85,38.31-42.41,58.76-59.31,9.98-8.25,26.49-5.16,32.02,6.82.34.74,1.69,4.32,1.69,4.78v83.29ZM195.06,235.49h23.72c-.09-.79.26-1.92-.12-2.58-.18-.32-4.58-3.72-5.56-4.95-.77-.98-1.18-1.98-1.86-2.99,13.3,5.83,24.73-9.36,16.16-21.02-4.23-5.76-13.02-13.94-18.32-19.42-.51-.53-1.65-1.96-2.36-1.84l-20.29,21.26c-8.51,12.02,1.57,26.08,15.63,21.3.42,3-9.2,7.99-7.01,10.24Z"/>
    <g>
      <path class="cls-1" d="M260.3,79.15l.53,35.04-7.01.55v-23.18c-1.61-.28-.85.43-1.13,1.26-2.44,7.24-4.16,14.76-6.74,21.95l-5.01-.09-7.05-22.59.53,23.18h-7.55l-.54-35.58h9.7l6.96,22.42,1.12.76,7.01-23.72h9.16Z"/>
      <path class="cls-1" d="M404.23,166.48c1.5,5.91,8.27,12.32,7.51,18.55-.5,4.12-4.05,7.66-7.93,8.79-3.35.98-5.12.57-8.2-.92.83,6.98-7.83,9-12.12,12.94-8.59-9.79,4.44-9.35,6.46-13.48.85-1.74-.39-7.44-1.88-8.39-1.64-1.04-10.06,5.07-12.62,5.2l-3.02-7.04,31.8-15.64ZM402.58,176.22c-.89-.64-8,3.59-9.43,4.26,1.09,4.8,3.48,8.64,8.89,6.15,4.89-2.26,2.13-6.85.54-10.4Z"/>
      <path class="cls-1" d="M376.06,139.65c11.08-2.26,20.77,10.63,13.61,20.08-2.29,3.02-13.66,12.94-17.09,13.64-12.47,2.55-21.28-12.83-12.02-22.26,2.11-2.15,13.11-10.97,15.5-11.46ZM378.76,146.65c-1.43.28-3.76,2.18-4.97,3.14s-9.06,7.8-9.38,8.41c-2.45,4.7,1.63,10.07,6.71,7.79,3.28-3.63,14.75-9.61,14.23-14.81-.31-3.19-3.6-5.1-6.6-4.52Z"/>
      <path class="cls-1" d="M121.75,157.86c2.13-.59,4.29-.85,6.48-.28.95.25,7.72,4.4,8.81,5.2.5.37.92.51.91,1.28,0,.32-3.33,5.1-3.64,5.16-4.6.97-12.06-12.58-17.4-.36.14.69,9.74,7.53,11.3,8.42.34.47-3.92,5.94-5.12,5.94-1.73,0-23.51-19.46-27.27-21.39-.05-.77.33-1.36.66-2.01,1.32-2.53,8.44-11.16,10.86-12.31,7.34-3.48,15.62,2.26,14.4,10.35ZM104.5,159.47c2.99.55,6.22,7.09,9.2,4.63s3.86-7.08.24-9.48c-4.53-3-7.65,1-9.43,4.84Z"/>
      <path class="cls-1" d="M134.03,122.39c3.47-.31,6.71,1.24,9.28,3.38,1.98,1.65,8.12,8.44,9.38,10.57,2.93,4.95,2.47,9.56-.85,14.14-.88,1.21-9.76,9.27-10.53,9.47-.29.08-.57.11-.86,0l-21.88-26.2.71-1.81c4.73-3.31,8.51-9,14.75-9.55ZM132.38,129.41c-1.17.24-4.89,2.62-4.67,3.84,2.01,1.89,13.97,17.66,15.09,17.38,3.04-.77,5.43-5.71,4.41-8.81-.46-1.4-9.28-11.27-10.6-12.03s-2.76-.69-4.22-.38Z"/>
      <path class="cls-1" d="M183.71,102.84c-1.62-.31-4.49,2.32-5.56,2.11-1.39-.27-1.59-4.21-5.95-3.69s-5.11,4.06-3.97,7.68c.77,2.45,6.07,14.46,7.75,15.42,3.02,1.73,8.73-.51,8.78-3.97,0-.53-1.87-5.49-2.11-5.67-.44-.34-7.26,5.5-7.32-3.25l11.63-4.83c.73,3.69,4.82,8.87,5.29,12.27,1.29,9.27-17.67,19.54-25.17,5.72-3.09-5.69-7.71-14.71-6.17-21.13,2.38-9.86,21.44-12.88,22.78-.67Z"/>
      <path class="cls-1" d="M337.36,113.09c-.52.37-5.43-1.89-5.92-2.41-1.03-1.1.05-2.37.07-3.78.07-6.18-10.1-5.5-9.13.44.82,5.05,10.29,8.45,8.94,17.24-2.68,17.45-31.64,5.36-23.04-9.84.92.37,6.24,2.45,6.45,2.73.35.47-2.09,3.84,0,6.72,2.79,3.82,10.05,3.11,9.71-2.13-.22-3.4-8.39-8.66-9.11-14.1-.61-4.57,1.4-9.54,5.89-11.27,9.32-3.6,21.4,6.44,16.14,16.42Z"/>
      <path class="cls-1" d="M418.74,201.57c.6,2.48,5.91,19.58,5.23,20.46-.56.71-4.56,1.13-5.71,1.6-.28-1.95-3.07-13.13-4.12-13.44-1.17-.35-5.52,1.72-7.17,1.61-1.15,1.34,3.48,10.21,3.15,11.51-.21.85-5.22,2.32-5.83,1.88-.53-.37-2.94-9.74-3.33-11.23l-8.59,1.58,3.81,13.68-5.95,1.93-5.73-21.04,34.23-8.55Z"/>
      <path class="cls-1" d="M224.72,115.8c-1.98-.08-5.42,2.01-7.18,1.66-.82-.17-2.91-5.87-3.43-5.99-1.22-.3-10.05,1.61-10.35,2.53-.37,1.15-.39,6.92-.64,7.18l-6.98,1.1,2.78-36.57c1.75-.33,5.85-2.33,7.18-1.17l18.61,31.27ZM203.69,107.18c1.16-.28,6.83-1.03,7.01-1.9l-6.2-11.57c-.6,4.47-1.01,8.95-.8,13.47Z"/>
      <path class="cls-1" d="M294.24,84.56c.4.42-.3,5.54-1.39,5.87-1.72.51-12.62-3.19-13.68-2.11l-1.04,8.04c1.58.6,10.77,1.59,11.22,2.25.58.84-.84,4.06-.48,5.33l-12.4-1.62-1.62,9.16c.48.45,11.62,1.47,12.96,2.41,1,.7.1,5.5-.54,6-.82.64-17.99-3.71-20.45-4.15l6.41-34.99c2.53.58,20.26,3.03,21,3.8Z"/>
      <path class="cls-1" d="M342.43,142.57c1.65,1.65,4.49,1.7,6.48.66,1.11-.58,1.68-2.38,3.17-2.01.83.2,4.74,3.02,4.73,3.97,0,.8-2.49,3.2-3.29,3.74-9.57,6.53-23.86-4.49-18.2-16.04,1.46-2.98,10.99-14.22,13.74-15.91,8.09-4.99,19.95,3.62,18.38,12.99-.22,1.33-2.27,6.03-3.84,5.75-.27-.05-3.99-3.19-4.16-3.43-1.29-1.86.86-2.49,1.11-4.39.35-2.6-1.3-4.73-3.76-5.37-2.88-.75-3.87.59-5.68,2.44-1.43,1.46-9.03,10.69-9.54,12.02-.76,1.99-.7,4.04.85,5.59Z"/>
      <path class="cls-1" d="M121.7,184.86c.57.84-1.95,6.28-2.65,6.72-.91.57-5.59-.9-7-.84-.18,2.87-2.9,6.03-3.57,8.62-.55,2.14,4.74,3.86,5.09,5.74.22,1.13-2.66,4.55-2.62,6.12-.51.38-2.71-1.45-3.23-1.88-6.58-5.37-14.5-13.14-20.76-19.13-.81-.77-2.87-2.53-2.97-3.54s1.96-6.14,2.98-6.24l34.73,4.42ZM106.11,189.67l-12.94-2.16,9.98,8.62c1.17.2.62-.24.85-.74.36-.81,2.36-5.43,2.11-5.72Z"/>
      <path class="cls-1" d="M88.32,208.54c-.5,1.06-.84,6.75-1.09,7-.41.43-4.43-1.04-6.39,1.43-1.51,1.9-1.49,4.42,0,6.32,1.59,2.03,13.48,4.48,16.38,4.65,8.94.53,8.02-9.71.22-11.11l1.68-6.67c15.96,1.83,13.34,26.75-2.99,25.32-2.93-.26-15.3-3.19-17.5-4.6-10.27-6.6-3.46-26.69,9.68-22.35Z"/>
    </g>
    <g>
      <path class="cls-2" d="M326.6,366.49c.19,4.02-.54,8.15-1.76,11.98-2.78,8.72-10.79,19.22-19.43,22.62-2.13.84-3.77,1.97-3.62-1.41.64-14.33,11.25-28.59,24.81-33.18Z"/>
      <path class="cls-2" d="M110.41,264.61c8.52,12.54,10.29,29.45,2.16,42.58-1.34.96-4.94-5.75-5.39-6.73-4.45-9.68-4.18-23.72.79-33.18.36-.68,1.59-3.37,2.44-2.67Z"/>
      <path class="cls-2" d="M232.77,412.89c.8,1.18-3.81,5.29-4.87,6.12-9.98,7.83-23.7,9.17-35.53,5.16-.55-.61,2.9-3.79,3.49-4.32,9.6-8.6,24.86-12.06,36.91-6.96Z"/>
      <path class="cls-2" d="M375.95,292.64c1.38-.3,4.83,6.78,5.37,8.09,4.41,10.75,4.14,24.83-2.69,34.48-7.6-6.99-8.71-18.85-7.67-28.68.24-2.25,2.97-13.45,4.99-13.89Z"/>
      <path class="cls-2" d="M124.72,292.64c1.02-.22,1.64,1.63,1.97,2.32,4.76,9.91,4.83,22.6.7,32.71-1.3,3.17-3.98,10.15-7.03,4.89-4.24-7.32-4.43-20.11-2.13-28.07.57-1.98,4.8-11.49,6.49-11.85Z"/>
      <path class="cls-2" d="M347.63,345.47c3.72,14.08-.92,32.51-13.71,40.42-2.21-.49-2.1-11.69-1.94-13.75.72-9.15,6.81-20.26,14.03-25.86.54-.42.69-1.04,1.62-.8Z"/>
      <path class="cls-2" d="M391.29,264.61c.46.39,2.74,5.83,3.11,6.87,4.17,11.74,3.1,25.89-4.98,35.7-3.73-3.42-5.32-9-6.05-13.88-1.4-9.39.9-18.23,5.7-26.36.39-.66,1.36-3.06,2.23-2.33Z"/>
      <path class="cls-2" d="M266.76,409.62c1.63-13.59,17.64-25.82,30.73-26.71,3.01-.21,2.11.83,1.33,2.98-4.65,12.76-18.3,23.61-32.06,23.73Z"/>
      <path class="cls-2" d="M167.52,385.32c-1.76,1.24-5.9-3.31-6.95-4.55-7.37-8.78-10.86-24.36-7.02-35.3.51-.39,4.28,3.39,4.86,4.03,5.73,6.31,10.81,17.85,10.81,26.43,0,1.15-1.23,9.06-1.71,9.39Z"/>
      <path class="cls-2" d="M365.41,321.21c4.95,10.66,4.5,25.3-1.33,35.59-.83,1.47-4.09,6.41-5.87,5.89-6.89-11.17-3.52-30.5,5.07-40.12.59-.66,1.1-1.53,2.14-1.36Z"/>
      <path class="cls-2" d="M198.84,401.53c-5.59-.2-10.96-4.86-14.57-8.88-6.11-6.8-10.1-16.45-10.23-25.62,1.08-1.07,8.37,3.68,9.66,4.63,9.32,6.91,14.89,18.26,15.14,29.88Z"/>
      <path class="cls-2" d="M175.55,399c6.86-.33,14.75,1.24,20.55,5,5.02,3.26,1.8,4.94-2.5,6.57-9.94,3.76-24.72,2.81-33.52-3.43-3.03-2.15-2.84-2.2.67-4.09,3.96-2.13,10.31-3.84,14.81-4.06Z"/>
      <path class="cls-2" d="M267.85,412.87c13.7-5.28,31.61-.88,40.43,11.03-9.72,4.43-22.71,2.54-31.82-2.68-3.24-1.86-7.57-4.62-8.61-8.36Z"/>
      <path class="cls-2" d="M410.7,313.12c-2.47,14.22-15.37,28.05-30.19,29.11.35-15.28,16.24-26.84,30.19-29.11Z"/>
      <path class="cls-2" d="M396.15,348.17c1.09,1.03-4.89,8.38-5.91,9.45-7.48,7.77-19.76,13.94-30.75,11.57,4.45-14.78,22.4-21.44,36.66-21.02Z"/>
      <path class="cls-2" d="M322.74,398.97c4.67-.05,10.18,1.22,14.48,3.01.85.35,5.05,2.38,5.31,2.78.71,1.07-.53,1.52-1.19,2.08-3.34,2.83-13.37,5.55-17.77,5.95-7.38.67-16.54-.8-22.28-5.65,4.84-5.8,14.1-8.09,21.45-8.17Z"/>
      <path class="cls-2" d="M233.88,409.08c-14.72.63-29.06-12.75-32.88-26.41,14.84.98,30.05,11.1,32.88,26.41Z"/>
      <path class="cls-2" d="M135.23,321.21c.99-.75,4.43,4.18,4.95,5.02,6.19,9.94,8.34,26.15,2.25,36.46-1.73.51-5.11-5.05-5.87-6.43-5.9-10.74-6.13-23.87-1.33-35.05Z"/>
      <path class="cls-2" d="M141.15,369.73h-8.36c-1.37,0-6.95-2.09-8.55-2.77-8.21-3.51-16.08-10.59-19.75-18.79h7.82c4.42,0,14.85,4.61,18.55,7.32,3.99,2.92,10.26,9.08,10.29,14.24Z"/>
      <path class="cls-2" d="M357.76,377.43c4.39-.45,9.51-.25,13.87.37.59.08,1.73.11,1.88.83.14.67-4.54,5.22-5.38,5.93-7.53,6.34-18.88,10.45-28.78,9.36-3.22-.35-6.81-.9-4.35-4.76,3.79-5.93,15.96-11.03,22.77-11.73Z"/>
      <path class="cls-2" d="M120.67,342.23c-14.76-1.12-28.03-14.69-30.19-29.11,14.71,2.15,28.52,13.95,30.19,29.11Z"/>
      <path class="cls-2" d="M167.01,392.34c-.2.29-5.38,1.49-6.25,1.58-11.02,1.15-27.63-5.59-33.09-15.56,10.46-2.27,20.47-1.52,29.81,3.87,1.88,1.08,11.21,7.73,9.52,10.11Z"/>
      <path class="cls-2" d="M242.5,417.17c-.29,1.22,1.42,3.4.85,4.31-.28.44-4.67,3.14-5.7,4.04-1.3,1.13-5.63,6.22-6.73,6.22-1.17,0-4.09-3.07-3.02-4.62.75-1.08,6.31-5.29,7.75-6.3,1.01-.71,6.16-4.26,6.85-3.66Z"/>
      <path class="cls-2" d="M249.37,410.8c10.01-2.22,6.28,16.9-2.28,9.6-3.43-2.93-1.65-8.73,2.28-9.6Z"/>
      <path class="cls-2" d="M258.96,417.17c1.07-.22,13.24,8.57,14.02,10.26.6,1.31-1.46,3.61-2.43,4.05-1.19.54-4.6-3.7-5.68-4.59-1.22-1-7.34-5-7.58-5.4-.12-.2,1.19-4.22,1.67-4.33Z"/>
    </g>
    <path class="cls-4" d="M195.06,235.49c-2.19-2.25,7.43-7.24,7.01-10.24-14.06,4.79-24.14-9.27-15.63-21.3l20.29-21.26c.72-.13,1.85,1.31,2.36,1.84,5.29,5.48,14.08,13.66,18.32,19.42,8.57,11.66-2.86,26.85-16.16,21.02.68,1.01,1.09,2.01,1.86,2.99.97,1.23,5.38,4.63,5.56,4.95.37.67.02,1.79.12,2.58h-23.72ZM200.46,232.25h12.94c-3.91-3.8-5.78-8.56-5.92-14.02,7.08,9.06,21.53,5.11,19.89-7.23-.81-6.11-12.2-15.25-16.68-19.98-.79-.84-2.8-4.22-3.95-4.02-5.01,5.99-12.96,12.04-17.58,18.03-6.82,8.84-.78,20.73,10.78,17.79,2.65-.67,4.37-3.06,6.45-4.6.02,5.38-2.12,10.27-5.92,14.02Z"/>
    <path d="M200.46,232.25c3.81-3.75,5.95-8.64,5.92-14.02-2.08,1.54-3.8,3.93-6.45,4.6-11.57,2.94-17.6-8.95-10.78-17.79,4.62-5.99,12.57-12.04,17.58-18.03,1.16-.2,3.16,3.18,3.95,4.02,4.48,4.73,15.86,13.86,16.68,19.98,1.64,12.34-12.81,16.29-19.89,7.23.14,5.45,2.01,10.22,5.92,14.02h-12.94Z"/>
    <g>
      <path class="cls-3" d="M305.94,285.61c5.75.62,10.49,5.19,11.52,10.84,1.65,9.14-6.86,17.62-15.96,15.76-.99-.2-1.91-.64-2.89-.88,1.01,1.42,2.25,2.67,3.51,3.87.74.7,2.62,2.06,3.08,2.8.89,1.44-.18,3-1.79,3.03-6.65-.35-13.76.45-20.35,0-1.33-.09-2.35-.76-2.22-2.23.1-1.05,1.53-2.07,2.22-2.84,1.3-1.46,2.59-2.95,3.56-4.65-1.64.52-3.26,1.13-5,1.24-8.99.58-14.67-8.15-13.35-16.45.91-5.7,5.43-9.73,11.12-10.31-.71-3.12-.58-6.23.67-9.19,2.71-6.39,10.08-9.77,16.75-7.78,7.06,2.11,11.11,9.65,9.11,16.76ZM303.15,287.47c2.59-5.18,1.45-11.29-3.15-14.87-6-4.67-15.12-2.22-18.14,4.68-1.46,3.34-1.28,6.9.22,10.19-2.05.05-4.04.33-5.92,1.15-11.03,4.81-6.19,23.56,5.96,21.97,1.47-.19,3.3-.79,4.61-1.48s2.25-1.8,3.4-2.74c-.21,4.27-2.85,7.83-5.63,10.85-.56.61-1.29,1.14-1.71,1.86h20.76c-3.68-3.47-8.59-7.06-8.47-12.7,4.03,4.29,9.93,5.61,15.07,2.31,6.69-4.29,7.65-13.38,1.5-18.63-1.29-1.1-4.18-2.58-5.88-2.58h-2.63Z"/>
      <path d="M303.15,287.47h2.63c1.7,0,4.59,1.48,5.88,2.58,6.15,5.25,5.19,14.34-1.5,18.63-5.14,3.3-11.03,1.97-15.07-2.31-.12,5.64,4.79,9.23,8.47,12.7h-20.76c.41-.72,1.14-1.25,1.71-1.86,2.77-3.02,5.42-6.57,5.63-10.85-1.15.94-2.06,2.03-3.4,2.74s-3.14,1.29-4.61,1.48c-12.15,1.59-16.99-17.16-5.96-21.97,1.88-.82,3.88-1.1,5.92-1.15-1.5-3.29-1.68-6.85-.22-10.19,3.01-6.9,12.13-9.35,18.14-4.68,4.6,3.58,5.74,9.69,3.15,14.87Z"/>
    </g>
    <path class="cls-0" d="M293.65,236.25l22.13-25.46-22.87-24.62-22.87,25.01,22.05,24.88c.42.31,1.12.43,1.56.18Z"/>
  </g>
</svg>